<?xml version="1.0" standalone="no"?>
<!DOCTYPE svg PUBLIC "-//W3C//DTD SVG 20010904//EN"
        "http://www.w3.org/TR/2001/REC-SVG-20010904/DTD/svg10.dtd">
<svg version="1.0" xmlns="http://www.w3.org/2000/svg"
     width="354.000000pt" height="355.000000pt" viewBox="0 0 354.000000 355.000000"
     preserveAspectRatio="xMidYMid meet">
    <metadata>
        Created by potrace 1.16, written by Peter Selinger 2001-2019
    </metadata>
    <g transform="translate(0.000000,355.000000) scale(0.100000,-0.100000)"
       fill="#000000" stroke="none">
        <path d="M340 3340 l0 -60 64 0 c63 0 65 1 68 27 3 26 5 27 58 24 44 -2 61 2
83 19 55 44 40 50 -123 50 l-150 0 0 -60z"/>
        <path d="M656 3341 c-27 -33 -54 -62 -62 -65 -8 -3 -14 -12 -14 -20 0 -9 -34
-61 -75 -117 -41 -56 -75 -106 -75 -111 0 -4 30 -8 68 -8 l68 0 114 156 c85
115 116 164 118 190 l3 34 -49 0 c-48 0 -50 -1 -96 -59z"/>
        <path d="M2170 3384 c-14 -2 -59 -9 -100 -15 -100 -15 -281 -64 -318 -88 -11
-7 -11 -30 -2 -126 6 -65 9 -120 7 -122 -3 -2 -24 42 -47 97 -41 97 -44 101
-68 95 -75 -19 -290 -203 -428 -367 -125 -147 -246 -409 -269 -580 l-6 -48 50
0 c27 0 52 -4 55 -8 3 -4 -22 -23 -55 -41 l-59 -32 0 -127 c0 -112 21 -320 35
-341 2 -5 28 -4 56 1 28 5 53 7 55 5 3 -2 -18 -23 -46 -47 -40 -33 -50 -48
-50 -72 0 -35 37 -164 56 -193 7 -11 26 -45 42 -75 33 -62 52 -74 52 -35 0 68
112 270 209 377 l52 57 67 3 67 3 12 -55 c6 -30 14 -67 18 -82 6 -24 4 -28
-14 -28 -12 0 -21 -4 -21 -8 0 -4 15 -46 34 -93 18 -46 42 -111 52 -144 9 -33
25 -67 34 -75 14 -13 16 -28 11 -90 -8 -92 -37 -153 -108 -231 -29 -31 -53
-61 -53 -66 0 -15 51 -34 106 -40 41 -5 62 -1 107 20 105 48 183 140 264 315
l45 97 18 -23 c29 -35 60 -129 67 -196 5 -56 -1 -91 -32 -192 -5 -16 3 -26 47
-54 29 -19 58 -37 63 -39 6 -2 53 -34 105 -71 214 -151 532 -351 655 -413 57
-28 164 -62 172 -54 3 3 -18 43 -45 89 -28 46 -66 117 -85 158 -32 70 -36 87
-50 260 -9 102 -19 248 -23 325 -3 77 -11 146 -17 153 -17 21 -79 51 -237 113
l-145 58 3 31 c1 18 12 55 24 82 21 48 23 50 55 45 60 -10 204 -60 277 -96
l71 -36 3 -190 2 -190 37 -37 c20 -21 41 -38 45 -38 11 0 10 114 -2 223 -23
199 -95 903 -106 1020 -3 42 -9 77 -13 77 -3 0 -25 -23 -49 -50 -24 -28 -48
-50 -54 -50 -6 0 -36 24 -68 53 -144 134 -393 208 -595 177 -226 -34 -407
-146 -517 -320 -47 -75 -63 -114 -83 -200 -13 -55 -14 -58 -10 -18 6 63 48
180 88 247 71 119 194 227 318 277 107 44 167 55 299 55 134 0 234 -16 353
-56 l68 -22 13 26 c8 14 30 67 51 116 20 50 39 96 42 103 7 16 -82 57 -196 89
-113 33 -366 43 -477 20 -154 -33 -287 -103 -404 -212 -56 -53 -67 -60 -43
-29 66 85 200 180 323 230 97 39 182 54 316 54 146 0 264 -19 402 -65 l102
-35 97 81 c53 45 146 114 207 154 106 70 282 165 305 165 20 0 11 18 -27 52
-133 121 -356 219 -619 274 -18 3 -35 -12 -94 -86 -40 -49 -74 -88 -76 -87 -2
2 9 45 23 96 15 50 24 94 21 97 -18 18 -352 31 -447 18z m560 -1327 c-230
-182 -438 -305 -682 -403 -122 -49 -299 -101 -373 -109 -33 -3 -6 7 77 30 335
92 590 213 868 412 63 46 117 83 120 83 3 -1 -2 -6 -10 -13z"/>
        <path d="M623 2862 c-25 -2 -33 -8 -33 -22 0 -19 8 -29 45 -54 15 -11 20 -28
23 -85 6 -99 -3 -140 -34 -151 -18 -7 -24 -17 -24 -39 0 -28 1 -29 43 -24 49
6 129 41 122 53 -3 5 0 10 7 12 16 6 25 138 9 138 -7 0 -10 4 -6 9 3 5 -5 12
-17 14 l-23 4 23 2 c14 0 21 5 16 12 -3 6 -1 15 6 19 10 6 9 13 -1 36 -21 42
-102 81 -156 76z"/>
        <path d="M435 2848 c-64 -24 -83 -60 -86 -173 -2 -62 1 -80 14 -90 11 -8 13
-15 6 -22 -31 -31 50 -73 136 -70 47 2 60 28 23 48 -35 19 -38 27 -38 137 0
98 1 103 23 111 16 6 23 18 25 40 2 30 1 31 -35 30 -21 0 -51 -5 -68 -11z"/>
        <path d="M650 2330 c0 -5 -13 -10 -30 -10 -40 0 -39 -23 2 -61 29 -26 33 -35
36 -99 6 -98 -3 -138 -32 -146 -17 -4 -25 -14 -28 -35 -3 -16 -3 -31 -1 -33 2
-1 29 1 60 6 75 12 111 34 123 78 13 46 13 120 0 120 -14 0 -13 57 2 62 23 8
-16 63 -62 85 -25 12 -51 27 -57 33 -9 7 -13 7 -13 0z"/>
        <path d="M430 2307 c-64 -30 -74 -49 -78 -153 -4 -83 -2 -99 12 -110 11 -7 13
-15 7 -18 -7 -5 -7 -14 1 -30 11 -26 45 -38 120 -42 40 -2 48 1 53 17 4 11 5
22 3 23 -1 1 -15 10 -30 19 -28 17 -28 19 -28 122 0 100 1 106 23 116 15 7 24
20 25 40 2 28 1 29 -40 28 -24 0 -54 -6 -68 -12z"/>
        <path d="M644 1782 c-67 -3 -73 -5 -104 -38 -27 -30 -30 -37 -18 -51 11 -15
11 -16 -6 -10 -15 6 -37 -11 -102 -75 -71 -70 -84 -87 -84 -115 l0 -33 119 0
120 0 -1 30 c-1 28 -4 30 -40 30 -22 0 -38 4 -36 9 2 5 39 47 82 93 44 46 95
100 114 120 20 21 34 39 31 40 -2 2 -36 2 -75 0z"/>
        <path d="M620 1500 c0 -102 2 -104 91 -98 40 3 44 6 47 31 3 23 8 27 33 27 26
0 29 3 29 30 0 28 -3 30 -34 30 -34 0 -35 1 -29 35 l6 35 -72 0 -71 0 0 -90z"/>
        <path d="M2553 1423 c-9 -23 -12 -43 -6 -51 4 -8 65 -35 133 -61 105 -40 173
-68 213 -89 4 -2 7 16 7 41 0 43 -1 44 -42 57 -68 20 -178 72 -179 84 -1 6 -1
15 0 20 4 20 -24 36 -66 36 -41 0 -45 -2 -60 -37z"/>
        <path d="M470 1240 c-8 -5 -36 -16 -62 -25 -36 -13 -49 -23 -57 -47 -6 -17 -9
-34 -6 -36 3 -3 32 -5 65 -4 41 1 60 -2 61 -11 0 -6 5 3 10 20 7 23 17 35 35
39 21 5 25 11 22 38 -2 25 -8 31 -28 32 -14 1 -32 -2 -40 -6z"/>
        <path d="M710 1180 c-8 -5 -30 -10 -49 -10 -28 0 -31 -2 -22 -14 21 -25 -3
-51 -111 -116 -57 -35 -122 -75 -145 -89 -36 -22 -43 -31 -43 -58 0 -31 2 -33
34 -33 18 0 45 9 59 20 14 11 28 20 32 20 4 0 30 15 58 33 29 19 73 47 100 63
151 92 168 110 153 170 -7 26 -38 32 -66 14z"/>
        <path d="M2939 945 c-5 -58 26 -378 42 -440 6 -22 30 -80 53 -130 42 -89 43
-90 89 -103 95 -25 95 -25 28 100 -76 145 -94 202 -116 370 -18 137 -18 137
-57 175 -21 20 -38 33 -39 28z"/>
        <path d="M523 902 c-23 -15 -43 -30 -43 -34 0 -5 68 -8 150 -8 l150 0 0 35 0
35 -107 -1 c-99 -1 -112 -3 -150 -27z"/>
        <path d="M1604 716 c16 -47 148 -237 164 -236 4 1 22 22 41 47 27 37 32 49 23
62 -7 9 -21 33 -32 54 -11 20 -27 37 -34 37 -7 0 -19 7 -26 15 -8 9 -30 15
-56 15 -31 0 -50 6 -64 20 -27 27 -29 25 -16 -14z"/>
        <path d="M440 720 c0 -5 -22 -10 -50 -10 l-50 0 0 -98 c0 -63 4 -102 12 -110
9 -9 9 -12 0 -12 -9 0 -12 -46 -12 -175 l0 -175 70 0 70 0 0 95 c0 84 2 95 20
105 23 12 28 35 6 27 -22 -9 -24 7 -25 177 -2 120 -5 162 -16 172 -16 16 -25
18 -25 4z"/>
        <path d="M522 669 l3 -44 63 -2 c43 -1 70 -7 82 -18 19 -18 33 -66 24 -89 -8
-21 -58 -38 -116 -40 l-53 -1 0 -40 0 -40 70 -1 c58 -2 72 -6 87 -24 27 -34
31 -64 14 -99 -18 -34 -34 -40 -116 -43 l-55 -3 0 -40 0 -40 85 0 c120 1 175
18 211 68 50 69 31 178 -36 209 -26 12 -25 28 3 28 25 0 56 81 49 130 -12 88
-68 122 -215 128 l-103 4 3 -43z"/>
        <path d="M1087 695 c-21 -8 -45 -11 -54 -8 -12 5 -15 2 -10 -9 3 -9 -2 -23
-13 -33 -10 -9 -28 -40 -40 -68 -21 -47 -22 -63 -17 -168 5 -123 17 -160 65
-212 26 -27 103 -57 149 -57 21 0 23 5 23 44 0 42 -2 45 -35 56 -19 6 -36 19
-39 28 -14 44 -25 163 -20 212 10 92 21 118 60 132 32 11 34 15 34 55 0 42 -1
43 -32 42 -18 0 -50 -7 -71 -14z"/>
        <path d="M1238 704 c-2 -5 -3 -15 -2 -21 1 -7 2 -24 3 -37 1 -17 9 -26 26 -30
36 -9 65 -41 65 -71 0 -18 7 -28 26 -35 25 -10 25 -30 0 -30 -9 0 -15 -25 -20
-85 -9 -113 -19 -138 -60 -153 -18 -7 -40 -12 -49 -12 -21 0 -22 -16 -2 -24 9
-3 15 -18 15 -36 0 -27 3 -30 33 -30 17 0 60 13 94 29 53 26 65 36 83 76 12
25 24 69 27 96 4 36 10 49 22 49 14 1 14 2 -1 14 -10 7 -18 23 -18 35 0 17 -6
21 -30 21 -28 0 -29 2 -23 33 8 41 9 43 28 27 23 -19 29 -6 18 39 -14 53 -49
95 -98 120 -46 23 -130 38 -137 25z"/>
        <path d="M1948 641 c-29 -38 -91 -122 -138 -186 -114 -157 -130 -176 -142
-168 -7 3 -8 1 -4 -5 6 -10 -8 -46 -24 -62 -10 -10 -50 -69 -50 -75 0 -3 33
-5 74 -5 l74 0 86 114 c47 63 86 117 86 121 0 3 4 11 10 18 76 92 230 301 230
311 0 3 -33 6 -74 6 l-75 0 -53 -69z"/>
        <path d="M1952 352 c-49 -52 -48 -64 2 -137 25 -36 46 -69 46 -73 0 -8 150 -4
159 4 2 2 -8 19 -23 38 -14 19 -26 39 -26 45 0 6 -4 11 -8 11 -4 0 -15 12 -25
28 -9 15 -34 47 -56 72 l-39 44 -30 -32z"/>
    </g>
</svg>
