<?xml version="1.0" standalone="no"?>
<!DOCTYPE svg PUBLIC "-//W3C//DTD SVG 20010904//EN"
 "http://www.w3.org/TR/2001/REC-SVG-20010904/DTD/svg10.dtd">
<svg version="1.0" xmlns="http://www.w3.org/2000/svg"
 width="1388.000000pt" height="722.000000pt" viewBox="0 0 1388.000000 722.000000"
 preserveAspectRatio="xMidYMid meet">
<metadata>
Created by potrace 1.16, written by Peter Selinger 2001-2019
</metadata>
<g transform="translate(0.000000,722.000000) scale(0.100000,-0.100000)"
fill="#000000" stroke="none">
<path d="M9670 7148 c-11 -18 -20 -37 -20 -42 0 -10 -54 -78 -108 -137 -71
-79 -287 -215 -498 -315 -173 -83 -337 -153 -774 -329 -398 -160 -522 -212
-950 -395 -118 -50 -231 -97 -251 -105 -20 -7 -78 -33 -130 -57 -52 -24 -105
-49 -119 -55 -28 -11 -47 1 208 -134 147 -79 573 -289 652 -322 69 -29 72 -32
43 -35 -30 -3 -289 35 -678 99 -302 50 -698 109 -728 109 -31 0 -131 -65 -122
-79 2 -5 26 -11 52 -14 43 -6 363 -55 878 -137 105 -17 336 -53 515 -80 179
-27 359 -57 400 -65 115 -23 652 -106 657 -101 2 2 -20 19 -49 38 -29 19 -75
49 -103 67 -50 33 -123 69 -657 327 -152 74 -292 144 -312 156 -19 13 -84 49
-143 81 -110 59 -214 139 -201 153 7 6 448 -180 548 -232 25 -13 131 -61 237
-108 388 -172 697 -320 798 -382 200 -124 263 -157 305 -161 25 -2 62 -5 83
-7 50 -5 37 11 -46 57 -34 19 -100 56 -147 82 -211 118 -494 250 -895 415
-110 45 -204 86 -210 90 -5 4 -66 31 -135 60 -241 100 -514 250 -494 270 5 5
79 39 164 75 85 36 173 74 195 85 22 10 216 87 430 170 603 233 681 265 1000
413 412 192 640 374 661 531 6 42 5 46 -15 46 -13 0 -29 -12 -41 -32z"/>
<path d="M8385 7090 c-203 -16 -471 -35 -595 -44 -124 -9 -283 -21 -355 -26
-71 -5 -197 -14 -280 -20 -82 -6 -188 -15 -235 -20 -76 -9 -899 -69 -1628
-119 -144 -10 -265 -21 -268 -24 -9 -9 148 -189 286 -327 75 -74 191 -178 259
-230 134 -104 348 -254 423 -298 26 -15 48 -32 48 -37 0 -6 -30 -26 -67 -44
-341 -167 -703 -422 -952 -669 -96 -96 -261 -296 -261 -317 0 -3 42 -4 93 -4
50 1 80 4 65 6 -33 5 -34 10 -11 43 83 119 288 328 442 449 46 36 108 85 137
108 112 90 371 252 619 388 60 34 67 40 51 49 -52 31 -263 169 -351 231 -143
99 -323 247 -445 364 -85 82 -102 103 -90 111 8 5 26 10 40 10 44 1 55 14 34
43 -10 13 -34 34 -51 46 -42 27 -42 38 0 46 33 6 39 1 243 -203 228 -228 386
-360 633 -532 l102 -70 126 62 c102 50 122 64 109 72 -8 6 -84 49 -167 96
-118 66 -147 86 -132 92 10 5 171 30 358 58 731 106 926 146 1129 226 91 37
180 83 173 90 -4 4 -780 -127 -1012 -171 -71 -13 -274 -50 -450 -81 l-320 -56
-53 28 c-69 37 -176 118 -280 212 -130 117 -172 161 -163 166 5 3 152 15 327
26 376 23 592 37 804 50 85 6 515 33 955 61 1099 69 978 57 1066 107 41 24 85
52 99 62 l25 20 -55 -1 c-30 -1 -221 -14 -425 -29z"/>
<path d="M8995 7016 c-49 -19 -236 -85 -415 -149 -741 -263 -859 -307 -1219
-452 -173 -69 -366 -151 -429 -181 -62 -30 -115 -54 -117 -54 -6 0 -328 -159
-345 -170 -8 -6 -73 -42 -145 -81 -235 -129 -445 -265 -610 -398 -211 -169
-399 -351 -523 -506 -36 -44 -73 -88 -84 -97 -19 -17 -16 -18 80 -18 58 0 104
4 107 10 4 6 46 37 93 70 48 33 105 72 127 88 180 127 678 409 1015 574 135
66 317 155 405 198 88 44 184 88 212 99 29 11 85 37 125 57 40 20 125 57 188
84 63 26 268 112 455 190 187 78 376 155 420 172 178 65 377 166 488 246 94
68 213 191 244 253 26 51 39 99 27 98 -5 0 -49 -15 -99 -33z"/>
<path d="M9485 3374 c-64 -83 -248 -259 -361 -347 -213 -167 -625 -404 -1006
-581 -54 -25 -98 -47 -98 -50 0 -2 12 -11 28 -18 60 -31 369 -202 392 -218 14
-10 75 -46 135 -80 173 -100 356 -216 470 -300 192 -141 391 -342 504 -508 34
-51 47 -62 69 -62 16 0 37 6 47 14 17 12 13 20 -66 122 -112 145 -349 379
-495 490 -203 153 -519 353 -754 477 -118 62 -170 92 -170 98 0 4 82 44 182
90 231 106 526 267 723 393 126 81 138 90 243 170 94 73 342 317 342 338 0 12
-86 48 -116 48 -5 0 -36 -34 -69 -76z"/>
<path d="M5237 3406 c-31 -14 -45 -4 368 -269 85 -54 340 -198 525 -295 183
-95 626 -316 674 -336 23 -10 36 -20 30 -25 -5 -5 -72 -34 -149 -66 -287 -117
-524 -219 -642 -276 -68 -32 -151 -71 -185 -85 -160 -67 -671 -338 -688 -365
-3 -4 -41 -31 -85 -60 -101 -65 -238 -176 -335 -269 -64 -62 -72 -73 -57 -82
35 -19 78 4 181 95 129 115 150 132 305 239 241 166 350 225 1016 548 93 45
483 209 632 265 109 42 138 58 129 73 -3 5 -54 31 -113 57 -102 46 -196 90
-548 260 -186 90 -444 230 -550 300 -44 28 -127 83 -185 120 -58 38 -139 95
-181 127 -78 60 -94 65 -142 44z"/>
<path d="M6030 3286 c0 -3 53 -33 118 -67 64 -34 135 -74 157 -88 22 -13 166
-94 320 -179 154 -84 296 -164 315 -177 30 -19 128 -77 271 -158 l35 -20 240
118 c131 65 300 148 374 184 l135 65 -250 7 c-500 14 -748 55 -1393 233 -331
91 -322 88 -322 82z"/>
<path d="M8900 3180 c-58 -22 -112 -44 -122 -49 -9 -6 -245 -101 -525 -212
-279 -111 -551 -219 -603 -241 -52 -22 -219 -89 -370 -149 -151 -61 -313 -127
-360 -148 -47 -22 -146 -64 -220 -96 -116 -49 -383 -181 -530 -263 -83 -47
-271 -172 -344 -229 -135 -107 -356 -336 -356 -369 0 -21 70 -18 142 7 68 23
500 210 593 257 33 17 197 91 365 165 269 120 524 237 715 327 33 16 184 84
335 151 266 118 605 282 659 318 14 10 85 51 156 91 138 78 365 228 480 317
109 84 157 155 110 160 -11 2 -67 -15 -125 -37z"/>
<path d="M7783 2292 c-51 -21 -93 -41 -93 -45 -1 -5 14 -20 33 -35 62 -49 72
-63 56 -73 -8 -5 -19 -9 -26 -9 -60 -1 -468 -66 -538 -86 -139 -40 -294 -118
-273 -139 6 -6 96 5 593 70 105 14 252 33 328 42 l139 17 71 -37 c116 -59 286
-159 367 -214 110 -76 126 -91 115 -101 -5 -5 -89 -14 -185 -21 -96 -7 -236
-16 -310 -21 -665 -47 -1160 -77 -1600 -95 -224 -9 -369 -20 -414 -30 -75 -17
-146 -51 -146 -71 0 -25 80 -37 200 -31 125 6 512 32 1065 72 193 14 582 41
865 60 283 19 553 37 600 41 99 7 68 24 313 -173 145 -117 149 -120 243 -147
53 -15 99 -25 101 -22 2 2 -13 28 -33 58 -266 376 -649 684 -1179 948 -88 44
-169 79 -180 79 -11 0 -61 -17 -112 -37z"/>
</g>
</svg>
